<?xml version="1.0" encoding="utf-8"?>
<!-- Generator: Adobe Illustrator 25.0.0, SVG Export Plug-In . SVG Version: 6.00 Build 0)  -->
<svg version="1.1" id="Capa_1" xmlns="http://www.w3.org/2000/svg" xmlns:xlink="http://www.w3.org/1999/xlink" x="0px" y="0px"
	 viewBox="0 0 16 16" style="enable-background:new 0 0 16 16;" xml:space="preserve">
<style type="text/css">
	.st0{fill:#F41F35;}
	.st1{fill:none;stroke:#F41F35;stroke-width:0.25;stroke-linejoin:round;}
</style>
<image style="display:none;overflow:visible;" width="139" height="130" xlink:href="logo-kinova.png"  transform="matrix(1 0 0 1 -61.4862 -55.6697)">
</image>
<g>
	<g>
		<path class="st0" d="M0.8,7.2h6.9c0,0,6.6,0.4,7.9-6.7h-5.3c0,0-2.3,4.5-9.5,5.8c0,0-0.4,0-0.4,0.4C0.4,6.7,0.4,7.2,0.8,7.2z"/>
		<path class="st1" d="M0.8,7.2h6.9c0,0,6.6,0.4,7.9-6.7h-5.3c0,0-2.3,4.5-9.5,5.8c0,0-0.4,0-0.4,0.4C0.4,6.7,0.4,7.2,0.8,7.2z"/>
	</g>
	<g>
		<path class="st0" d="M0.8,8.9l6.9,0c0,0,6.6-0.4,7.8,6.8l-5.3,0c0,0-2.3-4.5-9.5-5.8c0,0-0.4,0-0.4-0.4C0.4,9.4,0.4,8.9,0.8,8.9z"
			/>
		<path class="st1" d="M0.8,8.9l6.9,0c0,0,6.6-0.4,7.8,6.8l-5.3,0c0,0-2.3-4.5-9.5-5.8c0,0-0.4,0-0.4-0.4C0.4,9.4,0.4,8.9,0.8,8.9z"
			/>
	</g>
</g>
</svg>
